<svg xmlns="http://www.w3.org/2000/svg" viewBox="0 0 32 50">
  <!-- Stem -->
  <path d="M16 1 L16 8" stroke="#b06b00" stroke-width="2.5" stroke-linecap="round"/>

  <!-- Stem leaves -->
  <path d="M16 7 Q11 4 9 7 Q12 9 16 8Z" fill="#b06b00"/>
  <path d="M16 7 Q21 4 23 7 Q20 9 16 8Z" fill="#b06b00"/>

  <!-- Row 1 — top (narrowest) -->
  <path d="M16 9 Q8 10 8 17 Q12 20 16 17Z" fill="#c47c2b"/>
  <path d="M16 9 Q24 10 24 17 Q20 20 16 17Z" fill="#954f00"/>
  <ellipse cx="16" cy="14" rx="4" ry="6" fill="#b06b00"/>

  <!-- Row 2 — middle (widest) -->
  <path d="M16 18 Q6 18 6 27 Q11 30 16 27Z" fill="#c47c2b"/>
  <path d="M16 18 Q26 18 26 27 Q21 30 16 27Z" fill="#954f00"/>
  <ellipse cx="16" cy="23" rx="5" ry="7" fill="#b06b00"/>

  <!-- Row 3 — lower (narrowing) -->
  <path d="M16 28 Q9 27 9 35 Q13 38 16 35Z" fill="#c47c2b"/>
  <path d="M16 28 Q23 27 23 35 Q19 38 16 35Z" fill="#954f00"/>
  <ellipse cx="16" cy="32" rx="4" ry="5.5" fill="#b06b00"/>

  <!-- Tip -->
  <path d="M13 37 Q16 47 19 37 Q17.5 35.5 16 35.5 Q14.5 35.5 13 37Z" fill="#954f00"/>
</svg>
